<svg width="600" height="248" viewBox="0 0 600 248" fill="none" xmlns="http://www.w3.org/2000/svg">
<path d="M43.0087 215.263L29.2514 214.351L33.8372 234.873L49.4286 228.489L43.0087 215.263Z" fill="#FFB9B9"/>
<path d="M169.118 176.954L137.018 145.942L118.674 160.08L82.4464 203.405L86.5738 209.79L130.597 180.146L160.405 218.911L188.837 204.774L169.118 176.954Z" fill="#2F2E41"/>
<path opacity="0.1" d="M169.118 176.954L137.018 145.942L118.674 160.08L82.4464 203.405L86.5738 209.79L130.597 180.146L160.405 218.911L188.837 204.774L169.118 176.954Z" fill="black"/>
<path d="M171.87 197.477L167.742 200.669L134.266 189.268L126.47 186.075L110.879 189.268C110.879 189.268 110.879 176.498 125.553 176.954L140.686 180.602L158.571 181.971L171.87 197.477Z" fill="#FFB9B9"/>
<path d="M201.677 231.225L191.588 237.61H179.665L124.177 217.087L43.0089 231.681L40.7158 214.351L115.006 181.971L180.124 203.405L201.677 231.225Z" fill="#2F2E41"/>
<path d="M136.559 150.047L129.681 151.415L128.182 149.676C126.995 148.299 126.243 146.604 126.02 144.804C125.798 143.004 126.114 141.179 126.929 139.557L146.19 114.474C146.19 114.474 151.692 102.16 160.405 107.177C169.118 112.194 153.068 120.403 153.068 120.403L143.438 135.453L144.355 143.206L136.559 150.047Z" fill="#FFB9B9"/>
<path d="M180.124 120.403C190.002 120.403 198.009 112.44 198.009 102.617C198.009 92.7934 190.002 84.8303 180.124 84.8303C170.247 84.8303 162.24 92.7934 162.24 102.617C162.24 112.44 170.247 120.403 180.124 120.403Z" fill="#FFB9B9"/>
<path d="M172.099 115.614L180.353 135.225L200.072 127.016C200.072 127.016 193.652 111.51 193.652 111.054C193.652 110.598 172.099 115.614 172.099 115.614Z" fill="#FFB9B9"/>
<path d="M226.399 173.629C226.399 184.364 224.698 195.031 221.36 205.239L220.021 209.334L213.6 238.522L206.722 240.346L201.677 233.961L191.589 226.664L184.251 214.807L177.96 204.381L175.997 201.125L169.118 166.921L142.979 152.327L134.266 150.959L136.101 145.942L143.896 135.453L151.692 134.541L153.985 132.716L155.82 133.628L163.157 129.524L165.45 130.436L178.859 131.677L187.003 129.98L198.715 123.727L203.512 124.507L220.021 138.189C224.241 149.533 226.401 161.533 226.399 173.629Z" fill="#575A89"/>
<path d="M33.4745 222.325C33.4745 222.325 37.5819 215.402 35.847 214.593C34.1122 213.785 26.7445 210.563 26.7445 210.563L15.9399 207.002C15.9399 207.002 0.349578 183.959 0.00736695 203.998C-0.334844 224.036 11.359 228.853 11.359 228.853C11.359 228.853 21.7886 251.175 27.6965 247.615C33.6043 244.056 39.5161 231.973 39.5161 231.973C39.5161 231.973 28.8623 226.277 33.4745 222.325Z" fill="#2F2E41"/>
<path opacity="0.1" d="M221.396 169.657L203.97 181.059L177.96 204.381L175.997 201.125L170.494 173.762H171.87L186.086 147.767L221.396 169.657Z" fill="black"/>
<path d="M186.086 145.03L171.87 171.025H166.826L163.616 180.146L156.279 181.971L175.997 203.405L203.97 178.322L221.396 166.92L186.086 145.03Z" fill="#575A89"/>
<path d="M166.214 89.3917L164.276 90.1331C163.978 89.9324 163.723 89.6746 163.526 89.3747C163.33 89.0749 163.195 88.739 163.131 88.3868C163.067 88.0346 163.074 87.6732 163.151 87.3237C163.229 86.9742 163.376 86.6437 163.584 86.3515L160.003 86.1848C162.302 83.1401 165.225 80.6156 168.578 78.7782C171.931 76.9409 175.638 75.8326 179.454 75.5267C183.27 75.2208 187.108 75.7243 190.714 77.0038C194.32 78.2833 197.611 80.3098 200.371 82.949C200.534 82.3906 202.311 83.477 203.037 84.5787C203.28 83.67 204.947 88.0626 205.536 91.1676C205.809 90.1337 206.858 91.8027 205.939 93.4041C206.521 93.3195 206.784 94.8014 206.334 95.6269C206.971 95.3293 206.863 97.0981 206.173 98.2803C207.082 98.1999 199.002 110.67 195.731 117.958C194.781 113.618 193.713 109.047 190.651 105.814C190.13 105.265 189.56 104.764 188.991 104.264L185.912 101.562C182.333 98.4197 179.076 94.5413 174.308 93.3669C171.03 92.5598 168.958 92.3775 170.744 88.705C169.131 89.3746 167.624 90.3705 165.996 90.9925C166.018 90.4793 166.245 89.9051 166.214 89.3917Z" fill="#2F2E41"/>
<path d="M189.066 107.861C190.839 107.861 192.276 106.432 192.276 104.669C192.276 102.906 190.839 101.476 189.066 101.476C187.294 101.476 185.856 102.906 185.856 104.669C185.856 106.432 187.294 107.861 189.066 107.861Z" fill="#FFB9B9"/>
<path d="M114.43 32.9156H98.9092V48.3508H114.43V32.9156Z" fill="#1890FF"/>
<path d="M123.853 39.5307H105.007V20.788H123.853V39.5307ZM105.826 38.7158H123.033V21.6029H105.826V38.7158Z" fill="#3F3D56"/>
<path d="M45.0838 95.4639L40.8222 80.6219L25.8982 84.8601L30.1598 99.702L45.0838 95.4639Z" fill="#1890FF"/>
<path d="M41.2752 106.291L36.1005 88.269L54.2224 83.1227L59.3972 101.145L41.2752 106.291ZM37.1134 88.8288L41.8382 105.284L58.3843 100.585L53.6595 84.13L37.1134 88.8288Z" fill="#3F3D56"/>
<path d="M41.2265 26.3373L51.8239 15.0603L40.4845 4.52116L29.8871 15.7982L41.2265 26.3373Z" fill="#1890FF"/>
<path d="M29.9324 28.6673L42.8007 14.9738L56.5699 27.7713L43.7017 41.4648L29.9324 28.6673ZM42.8399 16.1255L31.0906 28.6283L43.6625 40.313L55.4118 27.8102L42.8399 16.1255Z" fill="#3F3D56"/>
<path d="M568.844 2.95601H424.631V0H359.239V2.95601H214.432C213.151 2.95601 211.882 3.20694 210.699 3.69448C209.515 4.18201 208.44 4.89661 207.534 5.79746C206.628 6.6983 205.91 7.76777 205.419 8.94478C204.929 10.1218 204.677 11.3833 204.677 12.6573V209.044C204.677 210.318 204.929 211.579 205.419 212.756C205.91 213.933 206.628 215.003 207.534 215.904C208.44 216.804 209.515 217.519 210.699 218.007C211.882 218.494 213.151 218.745 214.432 218.745H568.844C571.431 218.745 573.912 217.723 575.742 215.904C577.571 214.084 578.599 211.617 578.599 209.044V12.6573C578.599 11.3833 578.347 10.1218 577.856 8.94478C577.366 7.76777 576.648 6.6983 575.742 5.79746C574.836 4.89661 573.76 4.18201 572.577 3.69448C571.393 3.20694 570.125 2.95601 568.844 2.95601Z" fill="#3F3D56"/>
<path d="M565.521 20.101H217.755V215.198H565.521V20.101Z" fill="#1890FF"/>
<path d="M391.341 14.7801C393.311 14.7801 394.908 13.192 394.908 11.2329C394.908 9.27381 393.311 7.68567 391.341 7.68567C389.371 7.68567 387.774 9.27381 387.774 11.2329C387.774 13.192 389.371 14.7801 391.341 14.7801Z" fill="#1890FF"/>
<path opacity="0.1" d="M466.066 215.198H217.756V20.1011L466.066 215.198Z" fill="black"/>
<path d="M272.17 200.599C290.632 200.599 305.598 185.715 305.598 167.354C305.598 148.994 290.632 134.11 272.17 134.11C253.708 134.11 238.742 148.994 238.742 167.354C238.742 185.715 253.708 200.599 272.17 200.599Z" fill="#F2F2F2"/>
<path d="M279.612 192.341C271.388 192.341 263.348 189.915 256.51 185.371C249.672 180.827 244.343 174.369 241.195 166.813C238.048 159.256 237.225 150.942 238.829 142.92C240.434 134.898 244.394 127.53 250.209 121.747C256.024 115.963 263.434 112.025 271.5 110.429C279.566 108.834 287.926 109.653 295.524 112.783C303.122 115.912 309.617 121.213 314.186 128.013C318.755 134.814 321.193 142.809 321.193 150.988C321.181 161.951 316.796 172.462 309.001 180.215C301.205 187.967 290.636 192.328 279.612 192.341ZM279.612 110.175C271.495 110.175 263.561 112.569 256.812 117.053C250.064 121.538 244.804 127.912 241.698 135.369C238.592 142.827 237.779 151.033 239.362 158.95C240.946 166.867 244.854 174.139 250.594 179.846C256.333 185.554 263.645 189.441 271.606 191.016C279.566 192.591 287.818 191.782 295.316 188.693C302.815 185.604 309.224 180.373 313.734 173.662C318.243 166.95 320.65 159.06 320.65 150.988C320.637 140.167 316.31 129.794 308.616 122.142C300.923 114.491 290.492 110.188 279.612 110.175Z" fill="#3F3D56"/>
<path d="M504.969 125.318H472.484V132.069H504.969V125.318Z" fill="#3F3D56"/>
<path d="M544.242 72.7598H433.211V75.653H544.242V72.7598Z" fill="#3F3D56"/>
<path d="M544.242 81.9214H433.211V84.8145H544.242V81.9214Z" fill="#3F3D56"/>
<path d="M544.242 91.0829H433.211V93.9761H544.242V91.0829Z" fill="#3F3D56"/>
<path d="M544.242 100.245H433.211V103.138H544.242V100.245Z" fill="#3F3D56"/>
<path d="M544.242 109.406H433.211V112.299H544.242V109.406Z" fill="#3F3D56"/>
<path d="M544.242 24.059H530.666V37.5603H544.242V24.059Z" fill="#F2F2F2"/>
<path d="M550.545 43.8287H534.06V27.4343H550.545V43.8287ZM534.777 43.1159H549.828V28.1471H534.777V43.1159Z" fill="#3F3D56"/>
<path d="M588.363 211.651H554.424V209.219C554.424 209.155 554.411 209.093 554.387 209.034C554.362 208.976 554.327 208.922 554.282 208.878C554.237 208.833 554.183 208.797 554.124 208.773C554.066 208.749 554.003 208.737 553.939 208.737H542.302C542.239 208.737 542.176 208.749 542.117 208.773C542.058 208.797 542.005 208.833 541.96 208.878C541.914 208.922 541.879 208.976 541.854 209.034C541.83 209.093 541.818 209.155 541.818 209.219V211.651H534.545V209.219C534.545 209.155 534.532 209.093 534.508 209.034C534.483 208.976 534.448 208.922 534.403 208.878C534.358 208.833 534.304 208.797 534.245 208.773C534.187 208.749 534.124 208.737 534.06 208.737H522.423C522.36 208.737 522.297 208.749 522.238 208.773C522.179 208.797 522.126 208.833 522.081 208.878C522.036 208.922 522 208.976 521.975 209.034C521.951 209.093 521.939 209.155 521.939 209.219V211.651H514.666V209.219C514.666 209.155 514.653 209.093 514.629 209.034C514.605 208.976 514.569 208.922 514.524 208.878C514.479 208.833 514.425 208.797 514.367 208.773C514.308 208.749 514.245 208.737 514.181 208.737H502.544C502.481 208.737 502.418 208.749 502.359 208.773C502.3 208.797 502.247 208.833 502.202 208.878C502.157 208.922 502.121 208.976 502.097 209.034C502.072 209.093 502.06 209.155 502.06 209.219V211.651H494.787V209.219C494.787 209.155 494.774 209.093 494.75 209.034C494.726 208.976 494.69 208.922 494.645 208.878C494.6 208.833 494.546 208.797 494.488 208.773C494.429 208.749 494.366 208.737 494.302 208.737H482.666C482.602 208.737 482.539 208.749 482.48 208.773C482.421 208.797 482.368 208.833 482.323 208.878C482.278 208.922 482.242 208.976 482.218 209.034C482.193 209.093 482.181 209.155 482.181 209.219V211.651H474.908V209.219C474.908 209.155 474.895 209.093 474.871 209.034C474.847 208.976 474.811 208.922 474.766 208.878C474.721 208.833 474.667 208.797 474.609 208.773C474.55 208.749 474.487 208.737 474.423 208.737H462.787C462.723 208.737 462.66 208.749 462.601 208.773C462.542 208.797 462.489 208.833 462.444 208.878C462.399 208.922 462.363 208.976 462.339 209.034C462.314 209.093 462.302 209.155 462.302 209.219V211.651H455.029V209.219C455.029 209.155 455.016 209.093 454.992 209.034C454.968 208.976 454.932 208.922 454.887 208.878C454.842 208.833 454.789 208.797 454.73 208.773C454.671 208.749 454.608 208.737 454.544 208.737H442.908C442.844 208.737 442.781 208.749 442.722 208.773C442.663 208.797 442.61 208.833 442.565 208.878C442.52 208.922 442.484 208.976 442.46 209.034C442.435 209.093 442.423 209.155 442.423 209.219V211.651H435.15V209.219C435.15 209.155 435.138 209.093 435.113 209.034C435.089 208.976 435.053 208.922 435.008 208.878C434.963 208.833 434.91 208.797 434.851 208.773C434.792 208.749 434.729 208.737 434.665 208.737H343.513C343.449 208.737 343.386 208.749 343.327 208.773C343.269 208.797 343.215 208.833 343.17 208.878C343.125 208.922 343.089 208.976 343.065 209.034C343.041 209.093 343.028 209.155 343.028 209.219V211.651H335.755V209.219C335.755 209.155 335.743 209.093 335.718 209.034C335.694 208.976 335.658 208.922 335.613 208.878C335.568 208.833 335.515 208.797 335.456 208.773C335.397 208.749 335.334 208.737 335.271 208.737H323.634C323.57 208.737 323.507 208.749 323.449 208.773C323.39 208.797 323.336 208.833 323.291 208.878C323.246 208.922 323.211 208.976 323.186 209.034C323.162 209.093 323.149 209.155 323.149 209.219V211.651H315.876V209.219C315.876 209.155 315.864 209.093 315.84 209.034C315.815 208.976 315.779 208.922 315.734 208.878C315.689 208.833 315.636 208.797 315.577 208.773C315.518 208.749 315.455 208.737 315.392 208.737H303.755C303.692 208.737 303.628 208.749 303.57 208.773C303.511 208.797 303.457 208.833 303.412 208.878C303.367 208.922 303.332 208.976 303.307 209.034C303.283 209.093 303.27 209.155 303.27 209.219V211.651H295.998V209.219C295.998 209.155 295.985 209.093 295.961 209.034C295.936 208.976 295.901 208.922 295.856 208.878C295.811 208.833 295.757 208.797 295.698 208.773C295.639 208.749 295.576 208.737 295.513 208.737H283.876C283.813 208.737 283.75 208.749 283.691 208.773C283.632 208.797 283.578 208.833 283.533 208.878C283.488 208.922 283.453 208.976 283.428 209.034C283.404 209.093 283.391 209.155 283.391 209.219V211.651H276.119V209.219C276.119 209.155 276.106 209.093 276.082 209.034C276.057 208.976 276.022 208.922 275.977 208.878C275.932 208.833 275.878 208.797 275.819 208.773C275.76 208.749 275.697 208.737 275.634 208.737H263.997C263.934 208.737 263.871 208.749 263.812 208.773C263.753 208.797 263.699 208.833 263.654 208.878C263.609 208.922 263.574 208.976 263.549 209.034C263.525 209.093 263.512 209.155 263.512 209.219V211.651H256.24V209.219C256.24 209.155 256.227 209.093 256.203 209.034C256.178 208.976 256.143 208.922 256.098 208.878C256.053 208.833 255.999 208.797 255.94 208.773C255.882 208.749 255.818 208.737 255.755 208.737H244.118C244.055 208.737 243.992 208.749 243.933 208.773C243.874 208.797 243.821 208.833 243.776 208.878C243.731 208.922 243.695 208.976 243.67 209.034C243.646 209.093 243.634 209.155 243.634 209.219V211.651H236.361V209.219C236.361 209.155 236.348 209.093 236.324 209.034C236.299 208.976 236.264 208.922 236.219 208.878C236.174 208.833 236.12 208.797 236.061 208.773C236.003 208.749 235.94 208.737 235.876 208.737H224.239C224.176 208.737 224.113 208.749 224.054 208.773C223.995 208.797 223.942 208.833 223.897 208.878C223.852 208.922 223.816 208.976 223.791 209.034C223.767 209.093 223.755 209.155 223.755 209.219V211.651H201.451C198.365 211.651 195.405 212.87 193.223 215.04C191.041 217.21 189.815 220.154 189.815 223.223V228.456C189.815 231.525 191.041 234.469 193.223 236.639C195.405 238.809 198.365 240.028 201.451 240.028H588.363C591.449 240.028 594.409 238.809 596.592 236.639C598.774 234.469 600 231.525 600 228.456V223.223C600 220.154 598.774 217.21 596.592 215.04C594.409 212.87 591.449 211.651 588.363 211.651Z" fill="#3F3D56"/>
</svg>
