<svg width="300" height="164" viewBox="0 0 300 164" fill="none" xmlns="http://www.w3.org/2000/svg">
<g clip-path="url(#clip0_1_431)">
<path d="M264.723 130.221C284.206 130.221 300 114.501 300 95.1101C300 75.7189 284.206 59.9993 264.723 59.9993C245.24 59.9993 229.445 75.7189 229.445 95.1101C229.445 114.501 245.24 130.221 264.723 130.221Z" fill="#F2F2F2"/>
<path d="M258.987 125.083C278.47 125.083 294.264 109.363 294.264 89.9719C294.264 70.5808 278.47 54.8611 258.987 54.8611C239.504 54.8611 223.709 70.5808 223.709 89.9719C223.709 109.363 239.504 125.083 258.987 125.083Z" fill="#1890FF"/>
<path d="M250.71 162.67H205.276V163.205H250.71V162.67Z" fill="#3F3D56"/>
<path d="M184.13 119.659C184.13 95.577 203.815 75.9847 228.012 75.9847C252.208 75.9847 271.893 95.577 271.893 119.659C271.893 143.741 252.208 163.333 228.012 163.333C203.815 163.333 184.13 143.741 184.13 119.659ZM184.704 119.659C184.704 143.426 204.131 162.762 228.012 162.762C251.892 162.762 271.319 143.426 271.319 119.659C271.319 95.8917 251.892 76.5556 228.012 76.5556C204.131 76.5556 184.704 95.8917 184.704 119.659Z" fill="#3F3D56"/>
<path d="M193.307 41.3907L0.286287 12.8454L0.142883 162.851H250.812L193.307 41.3907ZM51.6247 97.0541C51.5279 97.0541 51.4335 97.0446 51.3379 97.0396V108.472H20.3628V77.6432H32.4087C32.4087 76.2048 32.9828 74.8253 34.0047 73.8082C35.0267 72.7911 36.4127 72.2196 37.858 72.2196C39.3032 72.2196 40.6893 72.7911 41.7112 73.8082C42.7332 74.8253 43.3073 76.2048 43.3073 77.6432H51.3379V86.2212C51.4335 86.2163 51.5279 86.2068 51.6247 86.2068C53.07 86.2068 54.456 86.7783 55.478 87.7954C56.4999 88.8125 57.0741 90.192 57.0741 91.6304C57.0741 93.0689 56.4999 94.4484 55.478 95.4655C54.456 96.4827 53.07 97.0541 51.6247 97.0541ZM170.219 88.6332C170.228 95.0392 168.843 101.371 166.158 107.193C165.869 107.824 165.564 108.446 165.243 109.06C163.96 111.533 162.446 113.881 160.72 116.071C159.837 117.193 158.903 118.269 157.918 119.299C157.195 120.059 156.446 120.791 155.67 121.497C148.882 127.692 140.332 131.642 131.196 132.804C129.3 133.044 127.39 133.164 125.477 133.164C113.929 133.177 102.823 128.746 94.4826 120.797C86.1418 112.848 81.2123 101.996 80.7251 90.5131C80.238 79.0297 84.231 67.8036 91.8689 59.183C99.5067 50.5625 110.198 45.2151 121.706 44.2595C121.806 44.2509 121.91 44.2424 122.013 44.2338C122.793 44.1739 123.582 44.1339 124.373 44.1168C124.74 44.1082 125.108 44.1025 125.477 44.1025C127.98 44.1012 130.478 44.3084 132.946 44.7219C133.287 44.7762 133.626 44.839 133.964 44.9018C134.173 44.9417 134.38 44.9846 134.586 45.0274C144.656 47.113 153.696 52.5871 160.186 60.5285C166.676 68.4699 170.219 78.3938 170.219 88.6303V88.6332Z" fill="#3F3D56"/>
<path d="M238.161 16.5695H186.786V17.144H238.161V16.5695Z" fill="#3F3D56"/>
<path d="M238.161 20.5912H186.786V21.1657H238.161V20.5912Z" fill="#3F3D56"/>
<path d="M238.161 24.6128H186.786V25.1873H238.161V24.6128Z" fill="#3F3D56"/>
<path d="M251.243 163.279H0V0H251.243V163.279ZM0.573614 162.708H250.669V0.570906H0.573614V162.708Z" fill="#3F3D56"/>
<path d="M124.834 16.0289H124.834C116.178 18.3628 111.27 28.0056 113.872 37.5667L117.179 49.7142L120.932 48.7022L121.88 43.6155L122.562 48.2627L146.69 41.7575L147.552 37.1333L148.172 41.358L150.888 40.6256L148.292 31.0876C145.297 20.0853 134.795 13.3433 124.834 16.0289Z" fill="#2F2E41"/>
<path d="M156.436 117.661L153.568 133.075L163.033 131.648L163.463 115.52L156.436 117.661Z" fill="#FFB8B8"/>
<path d="M128.042 43.443C133.745 43.443 138.367 38.8422 138.367 33.1667C138.367 27.4913 133.745 22.8904 128.042 22.8904C122.34 22.8904 117.717 27.4913 117.717 33.1667C117.717 38.8422 122.34 43.443 128.042 43.443Z" fill="#FFB8B8"/>
<path d="M124.744 40.7313L124.17 46.4404L119.581 49.0095L131.627 75.5566L140.805 53.5767L134.782 49.0095L134.208 38.1623L124.744 40.7313Z" fill="#FFB8B8"/>
<path d="M181.388 104.53C181.027 110.467 170.865 115.157 163.402 117.812C161.251 118.58 159.324 119.177 157.919 119.585C157.044 119.839 156.373 120.022 155.977 120.127C155.716 120.196 155.576 120.23 155.576 120.23V113.95L131.197 115.948V133.09C129.3 133.329 127.39 133.45 125.478 133.449C117.94 133.461 110.522 131.568 103.919 127.949C103.755 125.805 103.575 123.613 103.377 121.372C103.164 118.957 103.073 116.662 103.081 114.487C103.15 97.4765 109.382 87.7625 111.852 84.5826C112.16 84.1733 112.491 83.7807 112.841 83.4065L114.275 79.6956L113.237 73.1074L109.732 50.8649L109.686 50.5794C110.891 49.529 114.083 48.8581 116.836 48.4614C118.684 48.193 120.336 48.0474 121.064 47.9875C121.293 47.9704 121.431 47.9618 121.457 47.959H121.46L133.205 69.1339L137.249 50.8791L148.405 56.003C148.405 56.003 146.684 63.1394 146.684 69.1339C146.683 69.9354 146.579 70.7335 146.375 71.5088C145.897 73.2284 145.088 74.8389 143.991 76.2502C143.031 77.5332 141.912 78.6907 140.662 79.6956L138.367 85.9756L140.662 94.5392L156.456 89.8521L162.029 88.1993C162.498 88.06 162.976 87.9523 163.46 87.8767C165.694 87.5224 167.984 87.8518 170.026 88.8213C172.068 89.7908 173.766 91.3548 174.895 93.306L181.388 104.53Z" fill="#2F2E41"/>
<path d="M154.428 130.506C154.428 130.506 162.635 131.307 164.268 127.624L172.497 134.217C172.497 134.217 187.401 138.19 179.094 141.639C171.35 144.854 163.606 141.421 163.606 142.21C163.606 142.21 161.312 140.212 158.731 141.639C156.149 143.066 148.406 141.639 148.692 139.355C148.979 137.072 150.126 128.793 154.428 130.506Z" fill="#2F2E41"/>
<path d="M130.588 19.5965C128.465 18.004 125.796 17.3524 123.205 18.051L122.897 18.134C116.964 19.7336 113.609 26.3737 115.403 32.965V32.965L117.391 32.429L117.05 29.9103L118.183 32.2156L129.974 29.0366L130.401 26.7126L130.714 28.8369L133.034 28.2115C135.573 33.2697 135.474 39.039 132.737 45.5195L136.688 44.4542L137.544 39.8061L138.17 44.0547L145.702 42.0239L144.608 32.1589C142.678 25.0702 136.904 20.1748 130.588 19.5965Z" fill="#2F2E41"/>
<path d="M133.061 18.4659C135.913 18.4659 138.224 16.1655 138.224 13.3277C138.224 10.49 135.913 8.18958 133.061 8.18958C130.21 8.18958 127.899 10.49 127.899 13.3277C127.899 16.1655 130.21 18.4659 133.061 18.4659Z" fill="#2F2E41"/>
<path d="M132.774 16.1822C131.566 16.1829 130.395 15.7611 129.467 14.9905C128.538 14.2199 127.911 13.1493 127.695 11.9656C127.479 10.7819 127.687 9.56024 128.283 8.51371C128.88 7.46717 129.826 6.66225 130.958 6.23938C130.235 6.33167 129.541 6.57523 128.919 6.95402C128.298 7.33281 127.765 7.83825 127.354 8.43707C126.943 9.03589 126.664 9.71451 126.536 10.4283C126.408 11.142 126.433 11.8747 126.609 12.5782C126.786 13.2816 127.11 13.9398 127.561 14.5095C128.012 15.0792 128.579 15.5474 129.224 15.8833C129.87 16.2193 130.58 16.4153 131.307 16.4586C132.034 16.5018 132.762 16.3913 133.444 16.1342C133.222 16.1646 132.998 16.1806 132.774 16.1822Z" fill="#2F2E41"/>
<path d="M134.639 35.0222C135.352 35.0222 135.93 34.1915 135.93 33.1667C135.93 32.142 135.352 31.3113 134.639 31.3113C133.926 31.3113 133.348 32.142 133.348 33.1667C133.348 34.1915 133.926 35.0222 134.639 35.0222Z" fill="#FFB8B8"/>
<path d="M106.532 67.7065L105.671 79.1247C105.671 79.1247 101.656 85.4046 100.795 98.8209L100.509 107.099C100.509 107.099 94.4857 118.803 99.3615 118.517C104.237 118.232 103.95 107.385 103.95 107.385L112.555 82.5501V70.5611L106.532 67.7065Z" fill="#FFB8B8"/>
<path d="M111.694 50.8648H109.687C109.687 50.8648 106.532 52.863 103.951 61.4266C101.369 69.9902 101.082 70.2756 101.082 70.2756L114.562 73.4156L111.694 50.8648Z" fill="#2F2E41"/>
<path d="M176.721 54.8586C178.164 54.8586 179.335 53.6938 179.335 52.257C179.335 50.8202 178.164 49.6555 176.721 49.6555C175.277 49.6555 174.107 50.8202 174.107 52.257C174.107 53.6938 175.277 54.8586 176.721 54.8586Z" fill="#D0CDE1"/>
<path d="M191.979 101.845C192.621 101.845 193.141 101.328 193.141 100.689C193.141 100.051 192.621 99.5329 191.979 99.5329C191.338 99.5329 190.818 100.051 190.818 100.689C190.818 101.328 191.338 101.845 191.979 101.845Z" fill="#D0CDE1"/>
<path d="M175.631 155.796C176.273 155.796 176.793 155.278 176.793 154.64C176.793 154.001 176.273 153.484 175.631 153.484C174.99 153.484 174.47 154.001 174.47 154.64C174.47 155.278 174.99 155.796 175.631 155.796Z" fill="#D0CDE1"/>
<path d="M20.182 152.371C20.8236 152.371 21.3438 151.853 21.3438 151.214C21.3438 150.576 20.8236 150.058 20.182 150.058C19.5404 150.058 19.0203 150.576 19.0203 151.214C19.0203 151.853 19.5404 152.371 20.182 152.371Z" fill="#D0CDE1"/>
<path d="M74.9621 53.6039C75.6037 53.6039 76.1239 53.0862 76.1239 52.4476C76.1239 51.809 75.6037 51.2914 74.9621 51.2914C74.3205 51.2914 73.8004 51.809 73.8004 52.4476C73.8004 53.0862 74.3205 53.6039 74.9621 53.6039Z" fill="#D0CDE1"/>
<path d="M192.626 73.2033H192.045V72.6253H191.754V73.2033H191.174V73.4925H191.754V74.0705H192.045V73.4925H192.626V73.2033Z" fill="#D0CDE1"/>
<path d="M212.415 127.439H211.834V126.861H211.544V127.439H210.963V127.729H211.544V128.307H211.834V127.729H212.415V127.439Z" fill="#D0CDE1"/>
<path d="M146.45 151.417H145.869V150.839H145.578V151.417H144.998V151.707H145.578V152.285H145.869V151.707H146.45V151.417Z" fill="#D0CDE1"/>
<path d="M108.591 39.5198H108.01V38.9418H107.72V39.5198H107.139V39.809H107.72V40.3871H108.01V39.809H108.591V39.5198Z" fill="#D0CDE1"/>
<path d="M5.91438 62.0706H5.3336V61.4926H5.04306V62.0706H4.46228V62.3598H5.04306V62.9378H5.3336V62.3598H5.91438V62.0706Z" fill="#D0CDE1"/>
<path d="M17.0998 41.8035H16.519V41.2254H16.2285V41.8035H15.6477V42.0926H16.2285V42.6707H16.519V42.0926H17.0998V41.8035Z" fill="#D0CDE1"/>
<path d="M98.2662 152.274H97.6855V151.696H97.3949V152.274H96.8141V152.563H97.3949V153.141H97.6855V152.563H98.2662V152.274Z" fill="#D0CDE1"/>
<path d="M54.6715 32.9544H54.0907V32.3764H53.8001V32.9544H53.2194V33.2436H53.8001V33.8216H54.0907V33.2436H54.6715V32.9544Z" fill="#D0CDE1"/>
<path d="M6.77473 99.465H6.19395V98.8869H5.90342V99.465H5.32263V99.7541H5.90342V100.332H6.19395V99.7541H6.77473V99.465Z" fill="#D0CDE1"/>
<path d="M50.6563 67.2088H50.0755V66.6308H49.785V67.2088H49.2042V67.498H49.785V68.076H50.0755V67.498H50.6563V67.2088Z" fill="#D0CDE1"/>
<path d="M51.5167 149.99H50.936V149.412H50.6454V149.99H50.0646V150.279H50.6454V150.857H50.936V150.279H51.5167V149.99Z" fill="#D0CDE1"/>
<path d="M77.6162 131.436H77.0354V130.858H76.7448V131.436H76.1641V131.725H76.7448V132.303H77.0354V131.725H77.6162V131.436Z" fill="#D0CDE1"/>
<path d="M221.306 153.701H220.726V153.123H220.435V153.701H219.854V153.99H220.435V154.568H220.726V153.99H221.306V153.701Z" fill="#D0CDE1"/>
<path d="M7.7438 8.84905C9.32779 8.84905 10.6119 7.57103 10.6119 5.99452C10.6119 4.418 9.32779 3.13998 7.7438 3.13998C6.15981 3.13998 4.87573 4.418 4.87573 5.99452C4.87573 7.57103 6.15981 8.84905 7.7438 8.84905Z" fill="#1890FF"/>
<path d="M16.348 8.84905C17.932 8.84905 19.2161 7.57103 19.2161 5.99452C19.2161 4.418 17.932 3.13998 16.348 3.13998C14.764 3.13998 13.4799 4.418 13.4799 5.99452C13.4799 7.57103 14.764 8.84905 16.348 8.84905Z" fill="#1890FF"/>
<path d="M24.9522 8.84905C26.5362 8.84905 27.8203 7.57103 27.8203 5.99452C27.8203 4.418 26.5362 3.13998 24.9522 3.13998C23.3682 3.13998 22.0842 4.418 22.0842 5.99452C22.0842 7.57103 23.3682 8.84905 24.9522 8.84905Z" fill="#1890FF"/>
<path d="M189.117 142.219H137.742V142.794H189.117V142.219Z" fill="#D0CDE1"/>
<path d="M166.348 102.763H135.373V133.592H166.348V102.763Z" fill="#1890FF"/>
<path d="M141.396 126.741V102.763H140.822V127.312H166.348V126.741H141.396Z" fill="#D0CDE1"/>
<path d="M153.568 66.8502L158.157 77.9829C158.157 77.9829 163.032 83.6919 163.893 89.9719L165.327 97.3937C165.327 97.3937 168.769 110.525 163.319 109.954C157.87 109.383 159.304 96.8228 159.304 96.8228L158.444 93.1119L153.568 85.1192L146.373 71.5087L153.568 66.8502Z" fill="#FFB8B8"/>
<path d="M144.677 54.8613L148.405 56.0031L156.436 67.9921L141.809 77.6975L144.677 54.8613Z" fill="#2F2E41"/>
<path d="M152.581 122.174C156.541 122.174 159.751 118.979 159.751 115.038C159.751 111.096 156.541 107.901 152.581 107.901C148.621 107.901 145.411 111.096 145.411 115.038C145.411 118.979 148.621 122.174 152.581 122.174Z" fill="#D0CDE1"/>
<path d="M150.86 107.33C153.87 107.33 156.31 104.902 156.31 101.907C156.31 98.9114 153.87 96.4832 150.86 96.4832C147.851 96.4832 145.411 98.9114 145.411 101.907C145.411 104.902 147.851 107.33 150.86 107.33Z" fill="#1890FF"/>
<path d="M166.348 122.459C169.358 122.459 171.797 120.031 171.797 117.036C171.797 114.04 169.358 111.612 166.348 111.612C163.338 111.612 160.899 114.04 160.899 117.036C160.899 120.031 163.338 122.459 166.348 122.459Z" fill="#1890FF"/>
</g>
<defs>
<clipPath id="clip0_1_431">
<rect width="300" height="163.333" fill="white"/>
</clipPath>
</defs>
</svg>
