<svg width="248" height="200" viewBox="0 0 248 200" fill="none" xmlns="http://www.w3.org/2000/svg">
<g clip-path="url(#clip0_1_487)">
<path d="M63.526 83.0213C75.9107 83.0213 85.9504 72.9816 85.9504 60.597C85.9504 48.2123 75.9107 38.1726 63.526 38.1726C51.1414 38.1726 41.1017 48.2123 41.1017 60.597C41.1017 72.9816 51.1414 83.0213 63.526 83.0213Z" fill="#FF6584"/>
<path d="M247.263 53.6609V112.641C247.263 124.072 245.012 135.392 240.637 145.954C236.263 156.515 229.851 166.111 221.768 174.195C213.684 182.278 204.088 188.69 193.526 193.065C182.965 197.439 171.645 199.691 160.214 199.69H0V140.71C0 109.194 16.7503 81.5861 41.8371 66.3098C46.1601 63.6748 50.7063 61.425 55.4232 59.5861C58.1992 58.5017 61.0299 57.5631 63.9039 56.7744C63.9599 56.7557 64.0187 56.7397 64.0748 56.7263C64.9239 56.494 65.7784 56.275 66.6382 56.0694C66.6862 56.0561 66.7316 56.0454 66.7797 56.0347C72.0789 54.7721 77.4849 54.0095 82.9266 53.757C83.5701 53.7276 84.2136 53.7036 84.8625 53.6903C85.0948 53.6823 85.3298 53.6769 85.5674 53.6769C86.0587 53.6662 86.5527 53.6609 87.0494 53.6609H247.263Z" fill="#3F3D56"/>
<path d="M115.354 161.682C51.7791 161.682 0.218469 178.825 0.00231934 200H230.705C230.489 178.825 178.928 161.682 115.354 161.682Z" fill="#F2F2F2"/>
<g opacity="0.1">
<path opacity="0.1" d="M93.9919 190.714C105.79 190.714 115.354 188.057 115.354 184.78C115.354 181.502 105.79 178.846 93.9919 178.846C82.1941 178.846 72.6301 181.502 72.6301 184.78C72.6301 188.057 82.1941 190.714 93.9919 190.714Z" fill="black"/>
</g>
<g opacity="0.1">
<path opacity="0.1" d="M140.187 180.033C151.985 180.033 161.549 177.376 161.549 174.099C161.549 170.822 151.985 168.165 140.187 168.165C128.389 168.165 118.825 170.822 118.825 174.099C118.825 177.376 128.389 180.033 140.187 180.033Z" fill="black"/>
</g>
<g opacity="0.1">
<path opacity="0.1" d="M93.992 190.12C104.61 190.12 113.218 187.729 113.218 184.78C113.218 181.83 104.61 179.439 93.992 179.439C83.374 179.439 74.7664 181.83 74.7664 184.78C74.7664 187.729 83.374 190.12 93.992 190.12Z" fill="black"/>
</g>
<g opacity="0.1">
<path opacity="0.1" d="M140.187 179.439C150.805 179.439 159.413 177.048 159.413 174.099C159.413 171.149 150.805 168.758 140.187 168.758C129.569 168.758 120.961 171.149 120.961 174.099C120.961 177.048 129.569 179.439 140.187 179.439Z" fill="black"/>
</g>
<path d="M36.8491 79.3057C37.8814 79.3057 38.7183 78.4689 38.7183 77.4366C38.7183 76.4043 37.8814 75.5674 36.8491 75.5674C35.8168 75.5674 34.98 76.4043 34.98 77.4366C34.98 78.4689 35.8168 79.3057 36.8491 79.3057Z" fill="#F2F2F2"/>
<path d="M197.597 152.47C198.629 152.47 199.466 151.633 199.466 150.601C199.466 149.568 198.629 148.732 197.597 148.732C196.565 148.732 195.728 149.568 195.728 150.601C195.728 151.633 196.565 152.47 197.597 152.47Z" fill="#F2F2F2"/>
<path d="M109.479 92.3899C110.512 92.3899 111.348 91.553 111.348 90.5207C111.348 89.4884 110.512 88.6516 109.479 88.6516C108.447 88.6516 107.61 89.4884 107.61 90.5207C107.61 91.553 108.447 92.3899 109.479 92.3899Z" fill="#F2F2F2"/>
<path d="M202.136 80.3738C202.726 80.3738 203.204 79.8956 203.204 79.3058C203.204 78.7159 202.726 78.2377 202.136 78.2377C201.546 78.2377 201.068 78.7159 201.068 79.3058C201.068 79.8956 201.546 80.3738 202.136 80.3738Z" fill="#FF6584"/>
<path d="M41.1214 133.778C41.7113 133.778 42.1895 133.3 42.1895 132.71C42.1895 132.12 41.7113 131.642 41.1214 131.642C40.5315 131.642 40.0533 132.12 40.0533 132.71C40.0533 133.3 40.5315 133.778 41.1214 133.778Z" fill="#FF6584"/>
<path d="M25.1001 155.226H24.6136V154.74H24.5185V155.226H24.032V155.321H24.5185V155.808H24.6136V155.321H25.1001V155.226Z" fill="#F2F2F2"/>
<path d="M181.308 115.707H180.822V115.22H180.727V115.707H180.24V115.802H180.727V116.288H180.822V115.802H181.308V115.707Z" fill="#F2F2F2"/>
<path d="M221.629 107.696H221.142V107.21H221.047V107.696H220.561V107.791H221.047V108.278H221.142V107.791H221.629V107.696Z" fill="#F2F2F2"/>
<path d="M134.846 129.058H134.36V128.571H134.265V129.058H133.778V129.153H134.265V129.64H134.36V129.153H134.846V129.058Z" fill="#F2F2F2"/>
<path d="M209.88 131.728H209.393V131.242H209.298V131.728H208.812V131.823H209.298V132.31H209.393V131.823H209.88V131.728Z" fill="#F2F2F2"/>
<path d="M119.359 143.21H118.873V142.724H118.778V143.21H118.291V143.305H118.778V143.792H118.873V143.305H119.359V143.21Z" fill="#F2F2F2"/>
<path d="M153.538 143.744H153.052V143.258H152.956V143.744H152.47V143.839H152.956V144.326H153.052V143.839H153.538V143.744Z" fill="#F2F2F2"/>
<path d="M25.6341 98.3503H25.1476V97.8638H25.0526V98.3503H24.566V98.4454H25.0526V98.9319H25.1476V98.4454H25.6341V98.3503Z" fill="#F2F2F2"/>
<path d="M181.541 61.5992H180.774V77.1035H181.541V61.5992Z" fill="#E6E6E6"/>
<path d="M163.351 102.816L156.289 119.088L157.671 121.39L157.21 122.158L160.434 123.846V122.925L161.662 122.618L166.881 113.101L163.351 102.816Z" fill="#E6E6E6"/>
<path d="M157.824 122.004C157.824 122.004 152.605 130.14 158.438 131.368C164.272 132.596 159.513 122.772 159.513 122.772L157.824 122.004Z" fill="#E6E6E6"/>
<path d="M165.346 118.32L163.504 124.307L162.736 131.982L161.355 134.746L162.89 147.18L165.346 149.636L166.42 161.916V167.443L169.337 172.508L165.581 177.839C165.404 178.09 165.298 178.384 165.274 178.69C165.251 178.995 165.31 179.302 165.447 179.577C165.584 179.851 165.792 180.084 166.051 180.25C166.309 180.415 166.607 180.508 166.914 180.518C167.743 180.54 168.836 180.305 170.258 179.57C174.71 177.267 174.556 175.118 174.556 175.118C174.556 175.118 177.319 175.118 177.473 172.969C177.626 170.82 175.784 155.469 175.784 155.469L174.096 148.868V130.908H174.71L175.017 146.259L176.398 151.938L176.552 154.394L178.547 178.956C178.547 178.956 187.451 181.412 187.911 179.416C188.372 177.421 184.534 176.193 184.534 176.193L186.837 171.741V163.144L186.069 161.302L184.688 148.868L186.99 146.412L188.218 144.877V132.596L186.683 127.838L186.223 123.846L183.767 117.706C183.767 117.706 172.561 114.022 165.346 118.32Z" fill="white"/>
<path d="M185.302 83.6275C185.302 85.474 184.864 87.294 184.024 88.9381C183.183 90.5822 181.965 92.0033 180.468 93.0846C178.971 94.1659 177.239 94.8765 175.414 95.158C173.59 95.4395 171.724 95.2839 169.971 94.7038C168.218 94.1238 166.628 93.136 165.331 91.8216C164.034 90.5073 163.068 88.9038 162.511 87.1432C161.955 85.3826 161.825 83.5151 162.131 81.6942C162.437 79.8733 163.17 78.151 164.272 76.669L164.275 76.666C165.738 74.6975 167.785 73.2404 170.124 72.5017C172.463 71.763 174.975 71.7803 177.303 72.5512C179.632 73.3221 181.658 74.8073 183.094 76.7958C184.53 78.7842 185.303 81.1747 185.302 83.6275Z" fill="#1890FF"/>
<g opacity="0.1">
<path opacity="0.1" d="M183.644 78.7905L182.692 84.2416C175.541 65.6764 164.164 77.0805 163.968 77.28C165.143 75.6988 166.701 74.4412 168.494 73.6244C170.287 72.8077 172.258 72.4584 174.222 72.6092C176.187 72.7601 178.082 73.4061 179.729 74.4869C181.377 75.5678 182.724 77.0484 183.644 78.7905Z" fill="black"/>
</g>
<path d="M183.951 78.1765L183 83.6276C175.848 65.0624 164.471 76.4664 164.275 76.666C165.451 75.0848 167.008 73.8272 168.801 73.0104C170.594 72.1937 172.565 71.8444 174.53 71.9952C176.494 72.146 178.389 72.792 180.036 73.8729C181.684 74.9538 183.031 76.4344 183.951 78.1765Z" fill="white"/>
<path d="M182.352 75.8752L183.951 81.4267C183.951 81.4267 180.631 91.3769 165.237 91.7237L164.732 93.145L163.043 93.6055L162.276 96.8292L164.425 117.246C164.425 117.246 163.504 119.241 165.039 119.088C165.039 119.088 175.171 115.711 183.92 118.781C183.92 118.781 185.763 119.548 185.302 117.86C185.302 117.86 191.442 114.022 190.982 110.031C190.521 106.04 191.442 87.4652 191.442 87.4652C191.442 87.4652 192.363 82.0925 189.6 80.8644C189.6 80.8644 185.542 75.1842 182.352 75.8752Z" fill="white"/>
<path d="M178.987 114.664C178.987 114.664 169.369 115.63 172.031 120.964C174.693 126.297 179.434 116.464 179.434 116.464L178.987 114.664Z" fill="#E6E6E6"/>
<path d="M183.921 90.8424C183.921 90.8424 182.232 92.838 182.846 96.0617C183.46 99.2853 185.763 106.5 185.763 106.5L177.627 114.022L180.083 117.399L191.135 111.719L193.591 110.184C192.981 103.975 191.461 97.8899 189.081 92.1228L188.679 91.1494C188.679 91.1494 185.763 89.9214 183.921 90.8424Z" fill="#E6E6E6"/>
<path d="M183.153 85.3929C184.721 85.3929 185.993 84.1214 185.993 82.553C185.993 80.9846 184.721 79.7131 183.153 79.7131C181.584 79.7131 180.313 80.9846 180.313 82.553C180.313 84.1214 181.584 85.3929 183.153 85.3929Z" fill="#E6E6E6"/>
<path d="M181.157 63.5949C182.302 63.5949 183.229 62.667 183.229 61.5225C183.229 60.378 182.302 59.4502 181.157 59.4502C180.013 59.4502 179.085 60.378 179.085 61.5225C179.085 62.667 180.013 63.5949 181.157 63.5949Z" fill="#E6E6E6"/>
<path d="M128.438 94.078H127.951V93.5915H127.856V94.078H127.37V94.173H127.856V94.6595H127.951V94.173H128.438V94.078Z" fill="#F2F2F2"/>
<path d="M172.23 79.1247H171.743V78.6382H171.648V79.1247H171.161V79.2198H171.648V79.7063H171.743V79.2198H172.23V79.1247Z" fill="#F2F2F2"/>
<path d="M167.423 83.6641H166.937V83.1776H166.842V83.6641H166.355V83.7592H166.842V84.2457H166.937V83.7592H167.423V83.6641Z" fill="#F2F2F2"/>
<path d="M148.465 72.3631C149.054 72.3631 149.533 71.8849 149.533 71.2951C149.533 70.7052 149.054 70.227 148.465 70.227C147.875 70.227 147.396 70.7052 147.396 71.2951C147.396 71.8849 147.875 72.3631 148.465 72.3631Z" fill="#F2F2F2"/>
<path d="M95.8501 78.8236C95.8501 153.335 86.4806 153.335 74.9263 153.335C68.9526 153.335 63.5635 153.335 59.7525 143.042C58.6568 140.084 57.6889 136.27 56.8775 131.36C55.0502 120.323 54.0024 103.737 54.0024 78.8236C54.0024 69.2434 55.1365 59.8516 56.8775 51.0796C57.7144 46.8565 58.6919 42.7804 59.7525 38.8927C61.0495 34.1329 62.471 29.6574 63.9053 25.5621C64.8669 22.8085 65.838 20.2242 66.7804 17.8379C71.1344 6.82335 74.9263 -3.05176e-05 74.9263 -3.05176e-05C74.9263 -3.05176e-05 95.8501 37.6724 95.8501 78.8236Z" fill="#F2F2F2"/>
<g opacity="0.1">
<path opacity="0.1" d="M66.7798 17.8379V147.744H63.9048V25.5622C64.8663 22.8085 65.8375 20.2242 66.7798 17.8379Z" fill="black"/>
</g>
<path d="M74.2871 62.9311C80.6384 62.9311 85.7872 57.7823 85.7872 51.431C85.7872 45.0797 80.6384 39.9309 74.2871 39.9309C67.9358 39.9309 62.787 45.0797 62.787 51.431C62.787 57.7823 67.9358 62.9311 74.2871 62.9311Z" fill="#3F3D56"/>
<path d="M99.5234 146.307C96.9664 140.013 93.6833 138.927 91.5372 139.021V138.001H57.9952V139.021C55.8492 138.927 52.5661 140.013 50.0091 146.307C45.8563 156.529 52.5646 174.099 52.5646 174.099C52.5646 174.099 48.9795 149.595 60.8846 149.434C61.9156 150.778 63.1808 151.926 64.6194 152.822V159.413H83.845V153.422C85.7244 152.469 87.3657 151.106 88.6479 149.434C100.553 149.595 96.9678 174.099 96.9678 174.099C96.9678 174.099 103.676 156.529 99.5234 146.307Z" fill="#1890FF"/>
<path d="M74.2873 60.3755C79.2272 60.3755 83.2318 56.3709 83.2318 51.431C83.2318 46.4911 79.2272 42.4865 74.2873 42.4865C69.3474 42.4865 65.3428 46.4911 65.3428 51.431C65.3428 56.3709 69.3474 60.3755 74.2873 60.3755Z" fill="#1890FF"/>
<path d="M225.904 53.6609H225.37C225.408 59.4444 227.731 64.9784 231.832 69.0568C235.933 73.1352 241.48 75.4274 247.263 75.4339V74.8999C241.621 74.8938 236.21 72.6579 232.209 68.6796C228.208 64.7013 225.942 59.3029 225.904 53.6609Z" fill="#1890FF"/>
<path d="M216.024 53.6609H215.49C215.531 62.0641 218.895 70.1097 224.848 76.0404C230.802 81.9712 238.86 85.305 247.263 85.3138V84.7797C239.002 84.7705 231.08 81.4927 225.227 75.6623C219.374 69.8318 216.065 61.9223 216.024 53.6609Z" fill="#1890FF"/>
<path d="M205.874 53.6609H205.34C205.407 76.721 224.187 95.4606 247.263 95.4606V94.9266C224.481 94.9266 205.941 76.4272 205.874 53.6609Z" fill="#1890FF"/>
</g>
<defs>
<clipPath id="clip0_1_487">
<rect width="247.263" height="200" fill="white"/>
</clipPath>
</defs>
</svg>
