<svg width="232" height="200" viewBox="0 0 232 200" fill="none" xmlns="http://www.w3.org/2000/svg">
<g clip-path="url(#clip0_1_387)">
<path d="M126.496 55.6979C138.282 55.6979 147.835 46.1442 147.835 34.3591C147.835 22.5739 138.282 13.0202 126.496 13.0202C114.711 13.0202 105.158 22.5739 105.158 34.3591C105.158 46.1442 114.711 55.6979 126.496 55.6979Z" fill="#A0616A"/>
<path d="M110.57 45.0285C110.57 45.0285 114.59 75.3358 108.405 78.7377C102.22 82.1395 145.207 82.4488 145.207 82.4488C145.207 82.4488 135.62 56.1618 139.95 48.121L110.57 45.0285Z" fill="#A0616A"/>
<path d="M176.596 82.6021L173.021 98.8813L165.462 133.323L165.235 135.209L162.627 157.045L160.891 171.552L159.728 181.296C152.653 184.932 147.526 187.442 147.526 187.442C147.526 187.442 147.085 185.231 146.374 182.401C141.409 183.89 132.221 186.36 124.436 186.853C127.271 190.013 128.574 192.982 126.807 195.172C121.473 201.777 99.4541 187.941 91.7527 182.782C91.5734 184.017 91.5054 185.266 91.5496 186.513L85.656 181.981L86.2393 171.552L87.223 153.906L88.4592 131.776C88.0694 130.829 87.7427 129.856 87.4812 128.866C85.6763 122.447 83.4854 109.63 81.8053 98.8813C80.453 90.231 79.4374 82.9213 79.2227 81.3659C79.1936 81.1628 79.1791 81.0583 79.1791 81.0583L111.804 66.6421C114.123 72.0191 124.95 73.6354 124.95 73.6354C133.919 73.0174 140.95 68.2874 140.95 68.2874L176.596 82.6021Z" fill="#D0CDE1"/>
<path d="M150.001 181.258C150.001 181.258 148.619 181.731 146.373 182.401C141.408 183.89 132.221 186.36 124.436 186.853C117.733 187.282 112.068 186.249 111.032 181.876C110.588 179.996 111.218 178.449 112.591 177.178C116.688 173.38 127.39 172.019 135.878 171.552C138.275 171.421 140.492 171.36 142.337 171.337C145.471 171.296 147.526 171.36 147.526 171.36L147.575 171.552L150.001 181.258Z" fill="#A0616A"/>
<path d="M108.745 14.1744L104.755 12.5771C104.755 12.5771 113.097 3.39266 124.704 4.19134L121.44 0.597374C121.44 0.597374 129.419 -2.5972 136.674 5.7886C140.487 10.1968 144.899 15.3785 147.65 21.2156H151.923L150.139 25.1422L156.381 29.0689L149.975 28.3636C150.356 30.5139 150.415 32.7091 150.148 34.8767C149.874 37.045 148.767 39.0217 147.063 40.3896C147.063 40.3896 142.114 30.1474 142.114 28.5501V32.5434C142.114 32.5434 138.125 28.9495 138.125 26.5535L135.948 29.3488L134.86 24.9562L121.44 29.3488L123.616 25.7549L115.274 26.9529L118.538 22.5603C118.538 22.5603 109.108 27.7515 108.745 32.1441C108.382 36.5366 105.622 40.6989 105.622 40.6989C105.622 40.6989 98.2262 20.1643 108.745 14.1744Z" fill="#2F2E41"/>
<path d="M199.791 157.443C197.617 159.799 192.231 163.348 185.702 167.19C183.273 168.618 180.688 170.089 178.05 171.552C171.756 175.042 165.166 178.501 159.728 181.296C152.653 184.932 147.526 187.442 147.526 187.442C147.526 187.442 147.085 185.231 146.374 182.401C145.422 178.615 143.989 173.719 142.494 171.552C142.442 171.476 142.39 171.406 142.337 171.337C141.902 170.765 141.464 170.431 141.032 170.431L162.627 157.045L171.959 151.259L165.236 135.209L156.803 115.076L161.893 98.8813L167.009 82.6021H176.596C176.596 82.6021 179.771 89.5316 183.831 99.1947C184.437 100.64 185.064 102.146 185.702 103.701C194.054 124.014 204.465 152.379 199.791 157.443Z" fill="#D0CDE1"/>
<path d="M126.806 195.172C121.473 201.777 99.4538 187.941 91.7524 182.782C90.0751 181.659 89.0769 180.948 89.0769 180.948L96.1225 171.552L98.354 168.577C98.354 168.577 100.35 169.636 103.302 171.36C103.409 171.424 103.516 171.488 103.627 171.552C106.172 173.046 109.366 174.999 112.59 177.178C117.039 180.187 121.537 183.62 124.436 186.853C127.271 190.013 128.574 192.981 126.806 195.172Z" fill="#A0616A"/>
<path d="M103.302 171.36C102.514 171.357 101.728 171.421 100.951 171.552C94.28 172.698 92.3126 178.737 91.7525 182.782C91.5732 184.017 91.5052 185.266 91.5494 186.513L85.6558 181.981L83.5085 180.33C78.3403 178.528 73.7351 175.327 69.7422 171.552C66.2783 168.219 63.1711 164.534 60.4709 160.557C57.7814 156.637 55.3839 152.524 53.2976 148.253C52.7155 147.061 52.4026 145.755 52.381 144.429C52.3594 143.103 52.6298 141.788 53.1728 140.578L60.4709 124.313L71.138 100.541C71.2163 99.9753 71.3024 99.4221 71.3962 98.8813C73.5117 86.7517 79.1789 81.3659 79.1789 81.3659H83.5084L86.4045 98.8813L90.0027 120.642L87.481 128.866L81.6542 147.858L87.2228 153.906L103.302 171.36Z" fill="#D0CDE1"/>
<path d="M108.202 120.659L111.903 124.978C113.278 124.715 114.714 124.407 116.193 124.061L115.13 120.659L117.73 123.692C133.399 119.838 152.82 112.345 152.82 112.345C152.82 112.345 131.853 113.883 116.197 110.463C109.27 108.949 102.143 112.383 99.3007 118.879C97.6485 122.654 97.908 125.925 103.768 125.925C105.748 125.891 107.722 125.705 109.674 125.369L108.202 120.659Z" fill="#1890FF"/>
<path d="M192.579 191.632V193.394C192.58 193.877 192.491 194.356 192.315 194.807C192.237 195.008 192.143 195.202 192.034 195.387C191.688 195.968 191.197 196.448 190.61 196.782C190.022 197.116 189.358 197.291 188.682 197.291H59.1015C58.4258 197.291 57.7616 197.116 57.1741 196.782C56.5865 196.448 56.0958 195.968 55.7499 195.387C55.6405 195.202 55.5464 195.008 55.4685 194.807C55.293 194.356 55.2034 193.877 55.2044 193.394V191.632C55.2042 191.12 55.305 190.614 55.5008 190.141C55.6966 189.668 55.9836 189.238 56.3455 188.876C56.7074 188.514 57.1371 188.227 57.61 188.031C58.0829 187.836 58.5897 187.735 59.1015 187.735H66.5708V186.914C66.5708 186.892 66.575 186.871 66.5831 186.852C66.5913 186.832 66.6032 186.814 66.6183 186.799C66.6334 186.784 66.6514 186.772 66.6711 186.764C66.6908 186.755 66.712 186.751 66.7333 186.751H70.6305C70.6518 186.751 70.673 186.755 70.6927 186.764C70.7124 186.772 70.7304 186.784 70.7455 186.799C70.7605 186.814 70.7725 186.832 70.7807 186.852C70.7888 186.871 70.793 186.892 70.793 186.914V187.735H73.2276V186.914C73.2275 186.892 73.2317 186.871 73.2399 186.852C73.248 186.832 73.26 186.814 73.2751 186.799C73.2902 186.784 73.3081 186.772 73.3278 186.764C73.3476 186.755 73.3687 186.751 73.3901 186.751H77.2872C77.3086 186.751 77.3297 186.755 77.3495 186.764C77.3692 186.772 77.3871 186.784 77.4022 186.799C77.4173 186.814 77.4293 186.832 77.4374 186.852C77.4456 186.871 77.4498 186.892 77.4497 186.914V187.735H79.8873V186.914C79.8872 186.892 79.8914 186.871 79.8996 186.852C79.9077 186.832 79.9197 186.814 79.9348 186.799C79.9499 186.784 79.9678 186.772 79.9875 186.764C80.0073 186.755 80.0284 186.751 80.0498 186.751H83.9469C83.9683 186.751 83.9894 186.755 84.0091 186.764C84.0289 186.772 84.0468 186.784 84.0619 186.799C84.077 186.814 84.089 186.832 84.0971 186.852C84.1053 186.871 84.1094 186.892 84.1094 186.914V187.735H86.544V186.914C86.544 186.892 86.5482 186.871 86.5563 186.852C86.5645 186.832 86.5765 186.814 86.5916 186.799C86.6067 186.784 86.6246 186.772 86.6443 186.764C86.664 186.755 86.6852 186.751 86.7065 186.751H90.6037C90.625 186.751 90.6462 186.755 90.6659 186.764C90.6856 186.772 90.7036 186.784 90.7187 186.799C90.7338 186.814 90.7457 186.832 90.7539 186.852C90.762 186.871 90.7662 186.892 90.7662 186.914V187.735H93.2008V186.914C93.2008 186.892 93.2049 186.871 93.2131 186.852C93.2213 186.832 93.2332 186.814 93.2483 186.799C93.2634 186.784 93.2813 186.772 93.3011 186.764C93.3208 186.755 93.342 186.751 93.3633 186.751H97.2605C97.2818 186.751 97.303 186.755 97.3227 186.764C97.3424 186.772 97.3603 186.784 97.3754 186.799C97.3905 186.814 97.4025 186.832 97.4107 186.852C97.4188 186.871 97.423 186.892 97.423 186.914V187.735H99.8605V186.914C99.8605 186.892 99.8646 186.871 99.8728 186.852C99.8809 186.832 99.8929 186.814 99.908 186.799C99.9231 186.784 99.941 186.772 99.9608 186.764C99.9805 186.755 100.002 186.751 100.023 186.751H103.92C103.941 186.751 103.963 186.755 103.982 186.764C104.002 186.772 104.02 186.784 104.035 186.799C104.05 186.814 104.062 186.832 104.07 186.852C104.078 186.871 104.083 186.892 104.083 186.914V187.735H106.517V186.914C106.517 186.892 106.521 186.871 106.53 186.852C106.538 186.832 106.55 186.814 106.565 186.799C106.58 186.784 106.598 186.772 106.618 186.764C106.637 186.755 106.658 186.751 106.68 186.751H137.207C137.228 186.751 137.249 186.755 137.269 186.764C137.289 186.772 137.307 186.784 137.322 186.799C137.337 186.814 137.349 186.832 137.357 186.852C137.365 186.871 137.369 186.892 137.369 186.914V187.735H139.807V186.914C139.807 186.892 139.811 186.871 139.819 186.852C139.827 186.832 139.839 186.814 139.854 186.799C139.87 186.784 139.887 186.772 139.907 186.764C139.927 186.755 139.948 186.751 139.969 186.751H143.867C143.91 186.752 143.951 186.769 143.981 186.799C144.011 186.83 144.029 186.871 144.029 186.914V187.735H146.464V186.914C146.464 186.892 146.468 186.871 146.476 186.852C146.484 186.832 146.496 186.814 146.511 186.799C146.526 186.784 146.544 186.772 146.564 186.764C146.584 186.755 146.605 186.751 146.626 186.751H150.523C150.545 186.751 150.566 186.755 150.586 186.764C150.605 186.772 150.623 186.784 150.638 186.799C150.653 186.814 150.665 186.832 150.674 186.852C150.682 186.871 150.686 186.892 150.686 186.914V187.735H153.121V186.914C153.12 186.892 153.125 186.871 153.133 186.852C153.141 186.832 153.153 186.814 153.168 186.799C153.183 186.784 153.201 186.772 153.221 186.764C153.241 186.755 153.262 186.751 153.283 186.751H157.18C157.202 186.751 157.223 186.755 157.242 186.764C157.262 186.772 157.28 186.784 157.295 186.799C157.31 186.814 157.322 186.832 157.33 186.852C157.339 186.871 157.343 186.892 157.343 186.914V187.735H159.78V186.914C159.78 186.892 159.784 186.871 159.793 186.852C159.801 186.832 159.813 186.814 159.828 186.799C159.843 186.784 159.861 186.772 159.88 186.764C159.9 186.755 159.921 186.751 159.943 186.751H163.84C163.883 186.752 163.923 186.769 163.953 186.8C163.983 186.83 164 186.871 163.999 186.914V187.735H166.437V186.914C166.437 186.892 166.441 186.871 166.449 186.852C166.457 186.832 166.469 186.814 166.484 186.799C166.5 186.784 166.518 186.772 166.537 186.764C166.557 186.755 166.578 186.751 166.599 186.751H170.497C170.518 186.751 170.539 186.755 170.559 186.764C170.579 186.772 170.597 186.784 170.612 186.799C170.627 186.814 170.639 186.832 170.647 186.852C170.655 186.871 170.659 186.892 170.659 186.914V187.735H173.094V186.914C173.094 186.892 173.098 186.871 173.106 186.852C173.114 186.832 173.126 186.814 173.141 186.799C173.156 186.784 173.174 186.772 173.194 186.764C173.214 186.755 173.235 186.751 173.256 186.751H177.153C177.175 186.751 177.196 186.755 177.216 186.764C177.235 186.772 177.253 186.784 177.268 186.799C177.283 186.814 177.295 186.832 177.304 186.852C177.312 186.871 177.316 186.892 177.316 186.914V187.735H188.682C189.194 187.735 189.701 187.836 190.174 188.031C190.647 188.227 191.076 188.514 191.438 188.876C191.8 189.238 192.087 189.668 192.283 190.141C192.479 190.614 192.58 191.12 192.579 191.632Z" fill="#3F3D56"/>
<path d="M230.259 194.807H17.5562V195.387H230.259V194.807Z" fill="#3F3D56"/>
<path d="M182.146 117.453H133.847V116.458H111.946V117.453H63.4485C62.582 117.453 61.751 117.797 61.1383 118.41C60.5256 119.023 60.1814 119.854 60.1814 120.72V186.856C60.1814 187.722 60.5256 188.553 61.1383 189.166C61.751 189.779 62.582 190.123 63.4485 190.123H182.146C183.012 190.123 183.843 189.779 184.456 189.166C185.068 188.553 185.413 187.722 185.413 186.856V120.72C185.413 120.291 185.328 119.866 185.164 119.47C185 119.074 184.759 118.713 184.456 118.41C184.152 118.107 183.792 117.866 183.396 117.702C182.999 117.538 182.575 117.453 182.146 117.453Z" fill="#3F3D56"/>
<path d="M122.892 147.797C126.899 147.797 130.147 144.549 130.147 140.543C130.147 136.536 126.899 133.288 122.892 133.288C118.886 133.288 115.638 136.536 115.638 140.543C115.638 144.549 118.886 147.797 122.892 147.797Z" stroke="#D0CDE1" stroke-width="2" stroke-miterlimit="10"/>
<path d="M120.571 150.409C124.577 150.409 127.825 147.161 127.825 143.154C127.825 139.148 124.577 135.9 120.571 135.9C116.564 135.9 113.316 139.148 113.316 143.154C113.316 147.161 116.564 150.409 120.571 150.409Z" fill="#D0CDE1"/>
<path d="M31.469 191.875H23.3439V200H31.469V191.875Z" fill="#D0CDE1"/>
<path d="M26.5371 185.491V195.357H36.4033V185.491H26.5371ZM35.9738 194.928H26.9637V185.921H35.9738V194.928Z" fill="#3F3D56"/>
<path d="M219.507 191.875H211.382V200H219.507V191.875Z" fill="#D0CDE1"/>
<path d="M214.575 185.491V195.357H224.441V185.491H214.575ZM224.012 194.928H215.002V185.921H224.012V194.928Z" fill="#3F3D56"/>
<path d="M27.4456 66.7747C40.1609 66.7747 50.4688 56.4669 50.4688 43.7516C50.4688 31.0362 40.1609 20.7284 27.4456 20.7284C14.7302 20.7284 4.42242 31.0362 4.42242 43.7516C4.42242 56.4669 14.7302 66.7747 27.4456 66.7747Z" fill="#1890FF"/>
<path d="M35.4687 16.3924C33.3841 16.1273 31.2743 16.1273 29.1897 16.3924C24.5455 17.0022 20.1737 18.9314 16.593 21.9513C13.0124 24.9711 10.3732 28.9548 8.98864 33.4295C8.35893 35.4688 8.00233 37.5825 7.92816 39.7155C7.91771 40.012 7.91072 40.3121 7.91072 40.612C7.91719 47.0863 10.4919 53.2934 15.0699 57.8714C19.6478 62.4493 25.855 65.0241 32.3292 65.0306C32.849 65.0306 33.3688 65.0131 33.8816 64.9817C35.0853 64.9062 36.2816 64.7406 37.4606 64.4864C43.0907 63.2757 48.1118 60.1143 51.6371 55.5607C55.1624 51.007 56.9651 45.354 56.7268 39.6002C56.4885 33.8464 54.2245 28.3618 50.3348 24.1153C46.445 19.8687 41.1797 17.1334 35.4688 16.3924H35.4687ZM39.9722 63.0701H39.9687C38.0022 63.7412 35.9552 64.1482 33.8815 64.2805C33.3687 64.3154 32.849 64.3329 32.3292 64.3329C26.0404 64.3252 20.0114 61.8236 15.5645 57.3767C11.1177 52.9299 8.61606 46.9008 8.60837 40.612C8.60837 40.3121 8.61535 40.012 8.62581 39.7155C8.86562 33.5868 11.4669 27.7883 15.885 23.534C20.3032 19.2797 26.1958 16.8993 32.3292 16.8912C37.949 16.8915 43.3861 18.8869 47.672 22.522C51.9579 26.157 54.814 31.1955 55.7317 36.7398C56.6493 42.2842 55.5688 47.9743 52.6827 52.7963C49.7965 57.6184 45.2922 61.2592 39.9722 63.0701H39.9722Z" fill="#3F3D56"/>
<path d="M32.6778 18.2866H31.9801V23.1703H32.6778V18.2866Z" fill="#3F3D56"/>
<path d="M16.789 24.5789L16.2957 25.0722L19.749 28.5255L20.2423 28.0322L16.789 24.5789Z" fill="#3F3D56"/>
<path d="M10.0036 40.2632V40.9609H14.8873V40.2632H10.0036Z" fill="#3F3D56"/>
<path d="M16.2961 56.1519L16.7894 56.6452L20.2427 53.1919L19.7494 52.6986L16.2961 56.1519Z" fill="#3F3D56"/>
<path d="M44.4157 28.0322L44.909 28.5255L48.3623 25.0722L47.869 24.5789L44.4157 28.0322Z" fill="#3F3D56"/>
<path d="M49.7707 40.2632V40.9609H54.6544V40.2632H49.7707Z" fill="#3F3D56"/>
<path d="M44.909 52.6986L44.4157 53.1919L47.869 56.6452L48.3623 56.1519L44.909 52.6986Z" fill="#3F3D56"/>
<path d="M32.6778 58.0538H31.9801V62.9375H32.6778V58.0538Z" fill="#3F3D56"/>
<path d="M33.3756 39.2167C33.0737 38.9903 32.7065 38.8679 32.3291 38.8679C31.9517 38.8679 31.5845 38.9903 31.2826 39.2167C31.0759 39.3737 30.9057 39.5736 30.7837 39.8027C30.6292 40.0978 30.5624 40.4309 30.5911 40.7627C30.6198 41.0945 30.743 41.4111 30.9459 41.6751C31.1489 41.9392 31.4232 42.1396 31.7365 42.2528C32.0497 42.3659 32.3888 42.387 32.7136 42.3135C33.0385 42.2401 33.3355 42.0751 33.5696 41.8383C33.8037 41.6014 33.9651 41.3024 34.0347 40.9767C34.1043 40.6511 34.0793 40.3122 33.9625 40.0004C33.8457 39.6885 33.642 39.4165 33.3756 39.2167H33.3756ZM32.3291 41.6585C32.0518 41.6577 31.7861 41.5472 31.59 41.3511C31.3939 41.155 31.2834 40.8893 31.2826 40.612C31.2839 40.4004 31.3483 40.1939 31.4675 40.019C31.5697 39.871 31.7083 39.7518 31.8701 39.6731C32.0318 39.5943 32.2111 39.5586 32.3907 39.5695C32.5703 39.5803 32.744 39.6373 32.8951 39.7349C33.0462 39.8325 33.1696 39.9674 33.2533 40.1267C33.3369 40.2859 33.3781 40.4641 33.3728 40.6439C33.3675 40.8237 33.3159 40.9991 33.223 41.1531C33.13 41.3072 32.9989 41.4346 32.8423 41.5231C32.6858 41.6117 32.509 41.6583 32.3291 41.6585V41.6585Z" fill="#3F3D56"/>
<path d="M35.4685 10.2633H29.1895V16.5424H35.4685V10.2633Z" fill="#3F3D56"/>
<path d="M32.3293 11.3099C36.953 11.3099 40.7013 9.98233 40.7013 8.34474C40.7013 6.70716 36.953 5.37964 32.3293 5.37964C27.7055 5.37964 23.9572 6.70716 23.9572 8.34474C23.9572 9.98233 27.7055 11.3099 32.3293 11.3099Z" fill="#3F3D56"/>
<path d="M33.3755 27.3563H31.2824V39.2167H33.3755V27.3563Z" fill="#3F3D56"/>
<path d="M65.5811 63.9677H0V64.6654H65.5811V63.9677Z" fill="#3F3D56"/>
<path d="M43.6995 174.038C43.9702 183.309 38.5531 186.707 31.7547 186.905C31.5967 186.91 31.4395 186.913 31.283 186.914C30.9678 186.916 30.6555 186.911 30.3464 186.898C24.1979 186.643 19.331 183.379 19.0792 174.757C18.8186 165.834 29.894 154.24 30.725 153.383L30.7264 153.382C30.758 153.349 30.7742 153.333 30.7742 153.333C30.7742 153.333 43.4287 164.767 43.6995 174.038Z" fill="#D0CDE1"/>
<path d="M31.2651 185.5L35.5836 179.078L31.2739 186.191L31.2829 186.914C30.9676 186.916 30.6554 186.911 30.3463 186.898L30.5605 177.609L30.5546 177.537L30.5625 177.523L30.583 176.646L25.8536 169.779L30.5774 175.989L30.5942 176.174L30.756 169.156L26.6711 162.037L30.7676 167.923L30.7248 153.383L30.7249 153.334L30.7263 153.382L30.9975 164.841L34.7204 160.186L31.0097 165.829L31.0909 172.106L34.5167 165.98L31.1035 173.029L31.1487 176.52L36.1308 167.985L31.1639 177.738L31.2651 185.5Z" fill="#3F3D56"/>
<path d="M231.737 174.038C232.008 183.309 226.591 186.707 219.792 186.905C219.635 186.91 219.477 186.913 219.321 186.914C219.006 186.916 218.693 186.911 218.384 186.898C212.236 186.643 207.369 183.379 207.117 174.757C206.856 165.834 217.932 154.24 218.763 153.383L218.764 153.382C218.796 153.349 218.812 153.333 218.812 153.333C218.812 153.333 231.467 164.767 231.737 174.038Z" fill="#D0CDE1"/>
<path d="M219.303 185.5L223.622 179.078L219.312 186.191L219.321 186.914C219.006 186.916 218.693 186.911 218.384 186.898L218.598 177.609L218.593 177.537L218.601 177.523L218.621 176.646L213.892 169.779L218.615 175.989L218.632 176.174L218.794 169.156L214.709 162.037L218.806 167.923L218.763 153.383L218.763 153.334L218.764 153.382L219.036 164.841L222.758 160.186L219.048 165.829L219.129 172.106L222.555 165.98L219.142 173.029L219.187 176.52L224.169 167.985L219.202 177.738L219.303 185.5Z" fill="#3F3D56"/>
</g>
<defs>
<clipPath id="clip0_1_387">
<rect width="231.747" height="200" fill="white"/>
</clipPath>
</defs>
</svg>
